<?xml version="1.0" standalone="no"?>
<!DOCTYPE svg PUBLIC "-//W3C//DTD SVG 20010904//EN"
 "http://www.w3.org/TR/2001/REC-SVG-20010904/DTD/svg10.dtd">
<svg version="1.0" xmlns="http://www.w3.org/2000/svg"
 width="852.000000pt" height="852.000000pt" viewBox="0 0 852.000000 852.000000"
 preserveAspectRatio="xMidYMid meet">
<metadata>
Created by potrace 1.11, written by Peter Selinger 2001-2013
</metadata>
<g transform="translate(0.000000,852.000000) scale(0.100000,-0.100000)"
fill="#000000" stroke="none">
<path d="M4292 7057 c-31 -29 -82 -71 -112 -92 -30 -21 -89 -71 -130 -110 -41
-39 -102 -90 -135 -112 -33 -22 -78 -61 -100 -85 -59 -66 -274 -263 -320 -293
-22 -15 -76 -62 -120 -104 -44 -42 -111 -101 -149 -131 -94 -74 -256 -220
-256 -229 0 -5 -28 -28 -62 -52 -35 -23 -137 -114 -228 -202 -397 -381 -378
-365 -424 -353 -14 3 -48 26 -75 50 -28 25 -71 55 -98 69 -26 13 -61 31 -78
40 -46 24 -95 44 -155 62 -30 9 -72 23 -93 31 -20 8 -54 14 -75 14 -21 0 -63
9 -95 20 -81 29 -349 29 -411 1 -51 -23 -92 -37 -181 -62 -38 -11 -92 -33
-120 -48 -161 -90 -194 -113 -261 -178 -40 -40 -77 -73 -82 -73 -6 0 -41 -36
-79 -79 -75 -87 -204 -323 -203 -374 0 -15 -6 -43 -14 -61 -7 -18 -17 -53 -21
-77 -3 -24 -12 -64 -20 -89 -7 -25 -16 -108 -19 -186 -5 -112 -3 -151 10 -194
9 -29 19 -99 23 -154 7 -95 10 -104 44 -155 20 -29 37 -57 37 -61 0 -5 17 -37
37 -72 40 -67 232 -266 338 -351 33 -26 83 -66 110 -88 104 -83 226 -119 399
-119 91 0 124 -4 149 -17 37 -20 140 -22 162 -3 8 7 54 14 102 16 49 3 113 11
143 19 30 7 91 17 135 21 85 7 81 5 215 122 21 17 47 32 59 32 14 0 89 -67
224 -200 112 -109 223 -214 248 -233 24 -19 68 -63 98 -97 89 -102 232 -242
301 -296 67 -50 651 -634 832 -830 15 -16 66 -65 114 -109 47 -44 108 -101
134 -126 26 -26 63 -52 83 -58 49 -16 93 7 177 96 36 37 101 97 145 133 44 36
118 99 165 140 47 42 114 98 150 125 36 27 97 79 136 115 39 36 93 81 119 100
27 19 83 69 125 110 125 124 274 257 326 291 27 18 65 47 84 64 19 18 67 53
105 78 39 25 125 98 193 161 68 64 126 116 131 116 4 0 60 52 124 115 64 63
123 115 132 115 20 0 120 -49 177 -87 54 -36 91 -53 203 -98 50 -19 98 -40
107 -45 10 -6 26 -10 35 -10 10 0 32 -8 48 -17 25 -14 69 -17 287 -19 236 -2
260 -1 295 17 20 10 51 19 68 19 18 0 65 17 106 39 41 21 87 41 102 45 15 4
47 20 69 36 23 17 46 30 52 30 6 0 40 25 76 56 36 31 81 64 100 74 19 10 44
29 56 42 29 32 95 131 117 176 11 20 36 55 56 77 58 63 62 70 72 140 9 65 25
126 56 214 14 38 22 111 23 206 1 57 -18 270 -29 323 -6 29 -16 62 -22 74 -6
12 -15 56 -20 98 -17 149 -44 208 -170 368 -73 91 -130 153 -159 172 -25 16
-61 45 -80 65 -90 94 -160 135 -358 210 l-94 35 -201 0 c-195 0 -206 -1 -317
-31 -207 -56 -291 -89 -353 -135 -67 -50 -117 -67 -154 -53 -34 13 -232 221
-265 280 -16 27 -109 129 -207 228 -99 99 -191 197 -204 218 -29 45 -103 123
-172 178 -27 22 -66 56 -85 75 -53 52 -178 162 -203 179 -34 23 -150 132 -167
156 -8 12 -37 41 -65 64 -83 69 -275 242 -339 307 -34 34 -81 75 -106 91 -25
17 -73 58 -107 92 -59 59 -63 61 -113 61 -48 0 -55 -3 -108 -53z m219 -234
c109 -111 467 -457 517 -500 19 -15 100 -92 180 -169 81 -78 164 -153 185
-166 21 -14 77 -67 124 -118 48 -50 128 -125 178 -165 87 -70 451 -439 501
-507 13 -18 52 -60 87 -93 68 -66 137 -143 137 -154 0 -3 -7 -17 -16 -29 -26
-38 -54 -27 -122 48 -35 38 -84 82 -110 97 -26 15 -67 45 -92 66 -138 122
-613 610 -619 636 -6 29 -49 78 -84 94 -19 9 -137 118 -263 242 -329 324 -325
321 -369 349 -22 15 -62 44 -90 66 -75 60 -106 56 -185 -20 -81 -79 -97 -79
-169 0 -56 60 -56 60 -111 60 -62 -1 -77 -10 -127 -79 -18 -25 -62 -63 -97
-85 -35 -23 -91 -70 -124 -106 -41 -44 -81 -76 -126 -99 -50 -25 -85 -54 -136
-110 -38 -42 -119 -119 -181 -171 -62 -52 -126 -111 -143 -130 -59 -66 -131
-133 -191 -177 -47 -35 -65 -43 -87 -39 -33 7 -43 -7 -39 -53 3 -31 -6 -42
-121 -153 -67 -65 -139 -131 -158 -145 -19 -15 -80 -70 -135 -123 -55 -52
-121 -106 -146 -119 -46 -24 -46 -24 -72 -5 -26 20 -47 54 -47 79 0 8 30 39
68 68 37 30 109 98 160 150 51 53 116 112 145 131 28 20 113 90 187 156 74 66
182 160 240 209 58 49 144 132 192 184 54 59 104 103 132 116 60 30 187 144
236 214 28 39 77 84 153 141 62 47 172 146 246 221 110 112 144 141 197 165
49 22 71 39 99 78 37 52 58 64 85 51 9 -4 59 -52 111 -106z m-256 -480 c9 -9
21 -26 25 -39 5 -12 25 -46 46 -74 50 -69 65 -65 132 33 75 109 118 121 217
58 58 -37 194 -197 195 -228 0 -13 5 -23 12 -23 14 0 137 -115 162 -152 22
-34 15 -61 -16 -56 -15 2 -28 15 -37 36 -17 37 -31 40 -56 12 -19 -21 -50 -27
-59 -12 -3 5 -8 45 -12 90 -8 90 -18 96 -56 34 -33 -54 -108 -132 -127 -132
-17 0 -37 16 -76 62 -45 51 -50 63 -55 117 -4 47 -8 56 -24 56 -14 0 -24 -14
-38 -55 -21 -63 -39 -80 -84 -80 -41 0 -99 61 -114 122 -16 68 -33 93 -60 93
-24 0 -25 -2 -22 -60 3 -51 -2 -69 -27 -120 -81 -161 -110 -174 -223 -98 -95
62 -138 101 -138 123 0 26 34 64 112 126 38 31 97 82 131 113 34 32 69 61 77
64 33 12 99 7 115 -10z m95 -437 c0 -40 -6 -52 -56 -110 -30 -36 -63 -66 -72
-66 -24 0 -72 80 -72 120 0 33 55 135 93 173 20 20 20 20 64 -26 38 -40 43
-51 43 -91z m-585 55 c7 -12 -12 -24 -25 -16 -11 7 -4 25 10 25 5 0 11 -4 15
-9z m744 -4 c6 -8 14 -29 18 -48 3 -19 35 -96 70 -172 35 -76 63 -145 63 -155
0 -28 -38 -153 -55 -178 -26 -40 -69 -56 -133 -49 -126 15 -181 67 -203 192
-15 88 -4 137 46 203 19 25 55 74 81 110 54 74 84 110 95 110 3 0 12 -6 18
-13z m-536 -88 c106 -53 149 -85 173 -131 18 -35 18 -77 -1 -84 -24 -10 -27
-42 -10 -93 15 -45 15 -54 0 -103 -18 -63 -62 -114 -106 -123 -69 -15 -145 22
-163 80 -4 11 -24 31 -46 44 -70 44 -74 87 -20 211 24 55 30 83 31 142 0 87 5
108 25 108 9 0 61 -23 117 -51z m847 36 c16 -20 32 -167 24 -229 -7 -52 -34
-89 -62 -84 -14 3 -19 22 -28 98 -12 104 -9 161 13 203 15 30 34 35 53 12z
m-1140 -24 c65 -32 100 -78 100 -130 0 -51 -63 -181 -88 -181 -46 0 -116 76
-134 147 -7 26 9 148 22 173 14 26 34 25 100 -9z m1281 -77 c11 -13 11 -20 -2
-42 -20 -37 -53 -36 -57 1 -6 48 31 74 59 41z m189 -4 c0 -11 -10 -43 -23 -72
-13 -29 -32 -78 -41 -108 -10 -30 -23 -61 -29 -68 -17 -21 -81 -51 -124 -58
-58 -9 -70 10 -53 84 10 47 20 64 59 100 25 24 62 50 81 58 19 8 49 30 67 49
36 39 63 45 63 15z m-1632 -86 c4 -26 -26 -40 -45 -21 -8 7 -11 21 -7 31 9 24
48 17 52 -10z m1747 -5 c4 -13 0 -27 -11 -40 -35 -39 -87 -11 -66 36 15 33 67
36 77 4z m111 -54 c11 -28 -5 -59 -58 -119 -73 -82 -135 -118 -248 -146 -121
-29 -144 -41 -206 -106 -28 -30 -57 -54 -63 -54 -22 0 -51 40 -51 70 0 17 7
41 16 55 16 25 80 55 117 55 27 0 147 56 147 68 0 9 76 46 120 58 30 8 69 34
140 92 55 44 77 51 86 27z m-1871 -75 c44 -22 90 -40 103 -40 30 0 91 -32 119
-62 26 -27 93 -176 93 -205 0 -28 -17 -45 -105 -108 -139 -99 -182 -112 -273
-80 -60 21 -80 35 -103 72 -30 48 -69 153 -69 185 0 41 39 161 58 175 21 17
57 -5 102 -64 36 -45 67 -69 78 -59 10 11 -26 74 -68 120 -37 40 -51 82 -33
99 10 11 13 10 98 -33z m2031 -108 c6 -4 16 -16 22 -28 20 -39 -24 -59 -60
-27 -18 16 -24 44 -11 56 8 9 35 9 49 -1z m-2373 -80 c89 -91 71 -192 -25
-143 -37 18 -58 52 -58 95 0 16 -5 44 -12 62 -6 17 -8 39 -5 48 6 16 9 16 34
-2 16 -11 45 -38 66 -60z m2175 -11 c4 -24 -13 -63 -58 -136 -13 -22 -23 -50
-21 -62 2 -16 -11 -30 -53 -58 -48 -31 -65 -37 -115 -38 -71 -2 -101 18 -101
68 0 36 25 67 78 95 20 10 78 51 127 89 98 75 137 87 143 42z m-938 -57 c70
-9 208 -65 223 -91 6 -9 18 -12 36 -8 18 4 46 -3 87 -21 97 -45 186 -125 259
-234 23 -36 52 -74 63 -86 29 -30 52 -79 52 -109 0 -28 -33 -99 -51 -110 -24
-15 -76 -8 -107 15 -32 24 -32 24 -32 112 0 153 -41 191 -139 129 -27 -17 -73
-34 -111 -41 -36 -7 -84 -19 -108 -27 -40 -15 -90 -14 -157 3 -21 5 -32 -1
-60 -31 -37 -39 -43 -68 -21 -100 7 -11 16 -45 19 -75 15 -138 27 -208 41
-245 21 -55 20 -73 -6 -111 -25 -37 -93 -84 -121 -84 -23 0 -85 67 -92 101 -3
14 -1 46 5 70 12 48 21 91 46 239 15 89 15 100 0 153 -20 67 -25 70 -147 87
-75 10 -89 10 -121 -6 -44 -20 -71 -15 -120 26 -32 26 -38 38 -38 70 0 21 3
46 6 55 11 27 82 56 154 62 83 7 114 0 142 -32 31 -35 50 -33 46 6 -3 35 -11
41 -78 59 -83 22 -111 22 -196 4 -75 -15 -87 -16 -100 -2 -13 13 -12 18 7 42
12 15 45 38 73 51 28 13 76 38 106 56 30 17 84 40 119 51 67 21 209 39 251 32
14 -3 45 -7 70 -10z m1098 -16 c6 -31 -82 -104 -107 -89 -22 14 -5 55 36 84
41 30 66 31 71 5z m162 2 c0 -11 -6 -20 -14 -20 -18 0 -29 16 -21 30 11 18 35
11 35 -10z m19 -114 c13 -14 12 -22 -15 -78 -33 -71 -137 -190 -198 -228 -23
-13 -45 -30 -51 -36 -5 -7 -28 -24 -49 -38 -52 -35 -123 -36 -162 -3 -25 22
-26 26 -15 60 13 37 67 88 114 106 19 7 28 20 33 45 7 39 29 64 107 124 85 66
196 88 236 48z m163 -34 c18 -15 53 -41 78 -56 63 -41 330 -312 330 -335 0
-22 -25 -51 -44 -51 -7 0 -21 9 -31 20 -15 17 -31 20 -99 20 -146 0 -238 38
-244 100 -3 28 3 39 47 79 28 26 51 55 51 64 0 24 -37 44 -96 52 -86 11 -119
62 -72 112 28 30 40 29 80 -5z m-2601 2 c22 -6 119 -131 119 -155 0 -36 -31
-35 -63 1 -35 39 -84 74 -130 94 -46 19 -63 42 -47 61 12 15 64 14 121 -1z
m-397 -89 c49 -53 78 -151 60 -200 -9 -22 -46 -39 -147 -65 -86 -22 -121 -22
-184 -2 -24 8 -36 7 -49 -3 -16 -11 -14 -15 27 -35 64 -32 258 -236 259 -272
0 -46 -71 -82 -184 -94 -88 -9 -117 7 -144 84 -12 32 -22 73 -22 89 0 17 -11
60 -25 97 -13 36 -22 73 -18 83 6 17 97 117 173 190 19 19 57 55 84 81 96 93
122 100 170 47z m-1099 -30 c118 -51 155 -78 243 -171 99 -104 105 -115 97
-163 -6 -35 -3 -44 17 -63 72 -69 99 -131 119 -275 10 -74 10 -108 0 -174 -18
-118 -42 -174 -115 -264 -62 -78 -232 -242 -271 -262 -11 -6 -65 -20 -120 -32
-55 -13 -113 -28 -130 -34 -40 -16 -271 -15 -310 0 -16 7 -63 22 -103 35 -102
31 -147 58 -147 88 l0 24 146 0 c107 1 150 5 162 14 9 8 45 17 80 22 68 8 227
68 259 97 15 13 18 25 13 50 -8 45 16 54 66 25 26 -15 55 -22 92 -22 65 0 82
14 62 50 -8 14 -14 52 -15 86 0 67 -24 152 -48 172 -24 19 -76 15 -97 -8 -35
-38 -157 -21 -143 20 2 6 25 27 52 48 55 41 93 106 125 213 15 48 18 73 12 95
-62 199 -89 242 -240 378 -42 38 -77 74 -79 80 -2 7 29 11 90 10 85 0 100 -3
183 -39z m1313 -5 c55 -28 84 -51 101 -77 13 -21 32 -50 43 -65 10 -15 18 -33
18 -40 0 -17 81 -154 114 -194 14 -18 33 -48 41 -68 8 -20 20 -36 25 -36 6 0
10 -13 10 -30 0 -25 -4 -30 -25 -30 -17 0 -25 5 -25 18 0 25 -20 42 -50 42
-39 0 -140 37 -185 68 -49 34 -101 109 -115 165 -5 23 -17 62 -26 87 -9 25
-20 59 -24 75 -5 17 -14 44 -21 61 -15 38 -7 64 22 64 11 0 55 -18 97 -40z
m650 18 c18 -18 15 -39 -10 -65 -22 -24 -72 -31 -83 -12 -12 19 5 58 33 73 33
19 45 19 60 4z m-487 -10 c24 -21 69 -96 69 -117 0 -10 -6 -24 -14 -30 -11 -9
-21 -1 -50 40 -53 73 -63 98 -45 110 19 12 22 11 40 -3z m2587 -50 c31 -31 -5
-74 -88 -103 -22 -8 -56 -22 -74 -30 -38 -18 -76 -8 -76 21 0 23 45 84 77 104
33 22 142 27 161 8z m-2178 -79 c23 -11 62 -96 55 -118 -6 -19 -48 -31 -116
-31 -45 0 -89 32 -89 65 0 82 74 123 150 84z m-2774 -44 c22 -33 6 -72 -32
-81 -50 -13 -77 49 -42 94 17 21 56 14 74 -13z m6381 -28 c21 -13 3 -35 -50
-57 -29 -12 -71 -35 -95 -51 -24 -16 -57 -36 -74 -45 -38 -20 -81 -63 -115
-117 -14 -23 -39 -58 -54 -77 -15 -19 -38 -64 -50 -100 -47 -137 -18 -255 78
-317 104 -66 45 -100 -114 -67 -25 5 -32 41 -11 62 9 9 7 13 -5 18 -30 11 -71
-7 -110 -48 -44 -46 -57 -75 -57 -125 0 -19 -12 -62 -27 -95 -35 -79 -21 -95
36 -38 39 40 44 42 89 37 26 -3 60 -8 75 -12 16 -4 38 -3 50 3 42 20 57 21 72
6 14 -14 13 -19 -10 -46 -14 -16 -25 -36 -25 -44 0 -22 34 -51 97 -83 32 -16
74 -40 94 -54 44 -30 70 -34 283 -47 160 -10 170 -10 210 10 101 48 119 5 24
-57 -84 -55 -230 -123 -265 -123 -15 -1 -57 -7 -92 -14 -77 -17 -109 -8 -146
40 l-26 34 -93 0 c-103 0 -152 13 -219 57 -23 16 -55 35 -72 43 -66 33 -202
209 -221 285 -4 17 -14 44 -22 60 -37 72 -58 257 -35 307 7 15 13 49 13 76 0
26 4 52 10 58 5 5 17 38 26 74 9 36 24 79 35 96 24 40 114 122 169 154 23 14
62 50 87 82 38 48 56 61 126 92 l82 35 160 -3 c88 -1 166 -5 172 -9z m-4272
-91 c26 -26 75 -117 75 -140 0 -8 -4 -18 -10 -21 -11 -7 -135 62 -187 104 -58
46 -37 80 50 81 37 0 53 -5 72 -24z m1650 4 c58 -22 86 -99 48 -132 -42 -36
-135 -32 -178 8 -30 28 -32 58 -5 102 17 28 25 32 64 32 25 0 57 -5 71 -10z
m-651 -61 c17 -37 24 -65 19 -70 -5 -5 -38 -14 -74 -20 -63 -10 -64 -10 -87
17 -13 14 -21 33 -18 41 3 8 6 21 6 28 0 20 70 65 100 65 22 0 30 -10 54 -61z
m1824 46 c132 -3 152 -10 152 -54 0 -54 -111 -161 -167 -161 -8 0 -27 -6 -41
-14 -101 -53 -156 -69 -262 -74 -122 -5 -164 4 -216 50 -29 25 -34 37 -34 72
1 22 6 51 13 63 15 28 123 112 151 118 49 11 97 13 186 8 52 -3 150 -6 218 -8z
m1851 -46 c29 -27 24 -66 -11 -92 l-28 -21 -27 21 c-35 25 -41 65 -14 92 27
27 51 27 80 0z m-1459 -8 c8 -16 3 -36 -24 -93 -18 -41 -39 -99 -46 -129 -25
-106 -63 -149 -115 -129 -35 13 -135 116 -135 139 0 28 183 206 230 224 35 13
79 7 90 -12z m-4946 -50 c36 -40 -7 -100 -58 -82 -27 11 -33 56 -10 82 22 24
46 24 68 0z m3661 -6 c0 -22 -31 -33 -47 -17 -17 17 -1 44 24 40 15 -2 23 -10
23 -23z m261 -80 c11 -44 -5 -113 -27 -120 -34 -11 -52 13 -45 63 3 23 10 52
16 62 15 29 48 25 56 -5z m-1327 -65 c73 -58 99 -67 151 -50 46 15 60 8 60
-31 0 -19 -12 -42 -35 -68 -40 -44 -44 -73 -15 -116 39 -59 19 -119 -44 -127
-45 -5 -55 -31 -27 -69 19 -25 22 -37 15 -57 -11 -32 -93 -63 -181 -69 -80 -6
-125 18 -187 97 -67 87 -69 94 -63 184 l5 81 -44 47 c-48 51 -55 83 -26 116
13 17 36 23 105 30 80 9 90 13 127 46 56 50 82 48 159 -14z m1109 26 c75 -38
95 -66 103 -144 12 -102 10 -224 -4 -249 -7 -12 -59 -65 -115 -117 -95 -88
-107 -96 -143 -96 -22 0 -51 7 -65 16 -30 20 -54 73 -54 120 0 27 -7 37 -42
61 -59 40 -64 52 -49 113 8 32 11 71 6 106 -6 52 -5 55 27 85 18 17 62 53 97
80 61 47 67 49 128 49 47 0 76 -6 111 -24z m2370 -58 c7 -7 12 -24 12 -38 0
-14 -5 -31 -12 -38 -7 -7 -24 -12 -38 -12 -45 0 -63 37 -40 81 12 22 59 26 78
7z m-4098 -24 c134 -8 157 -37 108 -133 -19 -37 -32 -48 -83 -69 -82 -34 -247
-36 -351 -4 -38 12 -80 24 -94 26 -40 9 -90 44 -90 64 0 11 26 37 64 65 92 68
126 72 446 51z m2587 5 c41 -15 103 -60 103 -74 0 -23 -29 -37 -77 -39 -94 -4
-133 19 -133 79 0 39 51 55 107 34z m-4945 -76 c26 -23 23 -59 -7 -79 -37 -24
-75 -6 -75 35 0 53 45 78 82 44z m4628 -13 c55 -10 115 -32 197 -71 46 -22 70
-42 97 -79 55 -77 53 -82 -71 -125 -85 -29 -128 -38 -199 -42 -88 -4 -93 -3
-135 25 -58 40 -83 68 -108 124 -27 59 -27 108 -1 141 27 35 120 46 220 27z
m-2918 -52 c19 -18 57 -41 84 -52 58 -22 124 -62 124 -76 0 -5 -11 -17 -25
-26 -24 -16 -28 -15 -90 15 -77 38 -105 35 -105 -10 0 -51 53 -151 98 -187 60
-47 59 -48 -38 -122 -33 -24 -20 -37 50 -50 30 -6 59 -15 64 -20 6 -6 17 -10
26 -10 26 0 90 -49 90 -69 0 -10 -11 -26 -24 -35 -34 -21 -40 -50 -20 -81 22
-34 59 -52 122 -61 110 -14 109 -56 -2 -139 -101 -76 -118 -75 -204 14 -37 38
-104 107 -149 154 -78 79 -181 212 -196 250 -4 10 2 41 12 70 11 28 27 79 36
112 9 33 29 85 43 115 22 45 27 70 28 136 1 116 15 129 76 72z m1946 -10 c-2
-13 -10 -23 -18 -23 -8 0 -16 10 -18 23 -3 17 2 22 18 22 16 0 21 -5 18 -22z
m1500 -25 c27 -24 42 -173 19 -191 -20 -17 -47 -4 -47 22 0 11 -14 44 -30 71
-36 60 -37 79 -8 99 29 20 41 20 66 -1z m-858 -32 c0 -11 -5 -23 -11 -27 -15
-9 -33 12 -26 30 9 23 37 20 37 -3z m2470 -11 c11 -11 20 -28 20 -37 0 -46
-79 -73 -100 -34 -15 29 -12 45 10 69 26 27 44 28 70 2z m-3392 -73 c20 -21 8
-47 -23 -47 -14 0 -42 -7 -62 -15 -27 -11 -39 -12 -49 -4 -19 16 -18 23 13 59
24 29 31 32 66 27 22 -3 46 -12 55 -20z m-1127 3 c23 0 7 -42 -22 -58 -17 -9
-57 -38 -88 -64 -69 -56 -98 -65 -139 -44 -17 9 -46 16 -64 16 -41 0 -82 20
-86 42 -4 19 63 58 98 58 11 0 39 9 62 21 27 14 64 22 115 24 41 2 77 6 81 9
3 4 12 4 20 1 7 -3 18 -5 23 -5z m1347 -16 c25 -17 30 -62 7 -70 -17 -7 -63
20 -72 42 -15 40 24 57 65 28z m-2634 -22 c18 -64 17 -98 -3 -117 -20 -18 -22
-18 -41 0 -32 29 -63 84 -56 101 7 18 65 44 83 37 7 -3 14 -12 17 -21z m1574
-28 c27 -18 30 -64 5 -87 -10 -8 -51 -34 -92 -57 l-73 -42 -118 4 -117 3 -39
-35 c-48 -44 -130 -77 -153 -63 -25 16 -24 40 1 49 45 17 139 77 185 118 72
64 128 96 168 96 20 0 46 5 58 12 56 30 130 31 175 2z m1883 -19 c54 -40 120
-69 179 -80 46 -9 73 -7 160 12 58 12 118 26 133 32 43 17 73 13 103 -12 31
-27 27 -64 -9 -72 -35 -8 -350 -34 -357 -30 -4 2 -34 8 -68 14 -78 12 -199 80
-208 116 -12 50 15 58 67 20z m-1703 -139 c39 -58 39 -91 2 -91 -21 0 -30 10
-53 59 -46 97 -9 121 51 32z m1017 19 c0 -25 -4 -31 -27 -33 -19 -2 -28 2 -33
18 -8 27 12 52 39 48 16 -2 21 -10 21 -33z m641 9 c67 -35 84 -52 84 -85 0
-38 -17 -45 -49 -22 -14 11 -52 32 -84 47 -45 22 -57 32 -57 50 0 45 34 48
106 10z m1474 11 c7 -8 28 -15 46 -15 32 0 74 -28 74 -49 0 -40 -122 -41 -165
-1 -14 13 -25 31 -25 40 0 36 47 53 70 25z m-2655 -61 c57 -43 67 -112 23
-161 -71 -77 -168 -34 -168 75 0 34 6 45 40 76 48 43 61 44 105 10z m336 0
c11 -14 8 -21 -24 -50 -34 -31 -42 -34 -101 -34 -70 0 -116 24 -116 61 0 28
25 34 72 18 34 -11 46 -11 81 3 56 21 72 21 88 2z m603 -19 c3 -8 -3 -24 -14
-37 -15 -18 -22 -21 -36 -12 -26 15 -27 27 -4 52 21 22 45 21 54 -3z m-260
-14 c78 -35 96 -59 96 -127 0 -44 -5 -60 -33 -96 -28 -37 -44 -46 -107 -67
-41 -13 -87 -30 -102 -37 -15 -8 -57 -14 -101 -14 -45 0 -89 -6 -112 -16 -35
-14 -41 -14 -95 6 -57 21 -90 56 -90 97 0 10 -7 27 -15 37 -21 28 -19 40 14
75 22 24 38 31 65 31 20 0 59 11 86 25 31 16 66 25 94 25 48 0 158 41 191 72
26 24 34 23 109 -11z m1282 -14 c51 -27 57 -41 62 -152 l5 -104 -68 -63 c-37
-35 -86 -77 -109 -93 -22 -17 -64 -53 -91 -80 -56 -56 -143 -115 -168 -115 -9
0 -24 15 -34 33 -21 39 -25 159 -5 179 9 9 50 14 129 16 98 2 122 6 155 24 71
40 126 158 82 175 -8 3 -37 -1 -63 -10 -84 -27 -134 -3 -201 96 -22 33 -40 63
-40 67 0 14 36 39 65 43 66 11 250 1 281 -16z m-806 -31 c8 -8 38 -25 66 -39
102 -51 218 -217 246 -350 15 -70 5 -91 -42 -95 -49 -5 -245 111 -333 196 -84
83 -117 137 -124 205 -6 61 13 94 68 113 36 12 84 0 119 -30z m277 21 c71 -40
161 -110 176 -137 12 -19 40 -41 72 -57 83 -41 93 -93 19 -93 -17 0 -72 20
-121 44 -78 38 -99 55 -166 130 -93 104 -98 126 -33 126 17 0 41 -6 53 -13z
m-1639 -9 c7 -7 12 -25 12 -42 0 -44 38 -115 74 -137 37 -22 72 -24 106 -4 57
32 100 4 100 -66 0 -58 -38 -77 -96 -49 -22 10 -79 28 -127 41 -100 25 -166
64 -203 118 -13 19 -24 39 -24 43 0 13 55 71 85 89 35 22 56 24 73 7z m-306
-59 c44 -32 35 -58 -32 -92 -68 -34 -129 -93 -187 -180 -53 -79 -100 -121
-162 -142 -51 -17 -117 -20 -126 -5 -7 12 28 85 55 115 10 11 35 54 56 95 31
64 121 178 160 202 16 10 108 25 162 27 30 1 53 -6 74 -20z m-417 -102 c0 -18
-12 -27 -94 -67 -81 -39 -96 -5 -24 53 38 31 54 37 82 35 27 -2 36 -8 36 -21z
m1884 -80 c9 -16 41 -45 71 -66 44 -30 62 -51 87 -102 17 -35 35 -82 38 -104
3 -22 13 -82 21 -133 12 -72 13 -97 3 -108 -17 -21 -27 -18 -66 25 -25 29 -48
43 -83 51 -48 12 -181 89 -226 131 -25 24 -54 77 -78 147 -14 39 -14 47 1 83
16 41 40 58 123 90 61 24 90 20 109 -14z m-2544 -189 c99 -101 221 -216 270
-256 128 -105 402 -365 535 -508 30 -33 81 -77 113 -97 31 -21 107 -85 169
-143 61 -57 136 -118 165 -135 43 -25 64 -47 107 -113 53 -81 83 -106 130
-106 30 0 72 33 93 73 9 18 25 44 37 59 12 14 34 45 50 67 26 36 35 41 69 41
48 0 106 -44 169 -127 48 -63 81 -83 137 -83 37 0 50 8 135 83 127 110 183
157 227 189 21 15 51 47 67 71 20 28 59 61 114 96 84 53 141 97 268 209 39 34
75 62 80 62 5 0 30 27 55 60 31 40 68 73 113 100 104 63 193 127 242 175 25
23 64 54 87 69 23 14 99 71 168 127 69 55 133 99 142 97 21 -4 38 -31 30 -51
-3 -9 -23 -27 -45 -41 -21 -13 -58 -45 -83 -71 -24 -25 -96 -89 -159 -141
-191 -156 -221 -182 -319 -272 -52 -48 -111 -98 -131 -112 -67 -45 -110 -84
-248 -221 -75 -74 -159 -150 -185 -168 -26 -18 -78 -60 -114 -94 -36 -34 -89
-78 -118 -97 -57 -38 -151 -116 -328 -273 -61 -54 -124 -105 -141 -114 -17 -9
-50 -33 -73 -54 -24 -22 -53 -39 -66 -39 -33 0 -99 47 -190 134 -43 42 -102
91 -131 111 -30 20 -174 155 -321 301 -146 146 -286 277 -309 292 -24 15 -73
62 -110 105 -37 42 -72 77 -77 77 -5 0 -109 100 -232 221 -122 122 -239 234
-260 249 -20 16 -111 100 -202 187 -168 162 -178 177 -159 227 15 40 50 14
229 -166z m1379 137 c121 -37 124 -91 18 -248 -27 -40 -59 -89 -72 -110 -12
-21 -42 -61 -67 -90 -25 -29 -52 -65 -60 -82 -19 -38 -107 -108 -130 -103 -34
6 -25 37 29 91 63 64 79 110 67 189 -10 60 -1 104 31 148 18 26 20 38 15 84
-9 69 -1 93 38 117 38 23 66 24 131 4z m-324 -55 c0 -5 -6 -13 -14 -17 -7 -4
-19 -20 -27 -34 -17 -33 -111 -114 -161 -140 -47 -24 -98 -26 -98 -3 0 10 19
38 43 64 23 26 56 63 73 83 29 34 35 37 87 37 31 0 59 5 62 10 8 13 35 13 35
0z m695 -35 c22 -21 25 -34 26 -97 1 -40 1 -77 0 -82 -1 -5 -4 -45 -8 -90 -4
-65 -11 -90 -34 -129 -16 -26 -29 -52 -29 -57 0 -6 -15 -27 -34 -47 -18 -21
-37 -49 -41 -63 -14 -43 -47 -80 -73 -80 -24 0 -24 1 -18 63 3 34 1 89 -5 122
-24 136 -22 156 21 225 35 55 51 97 59 154 11 75 15 84 45 96 37 15 66 11 91
-15z m391 -18 c14 -18 40 -67 57 -108 29 -69 31 -82 31 -199 0 -120 -1 -127
-32 -190 -69 -141 -107 -185 -137 -160 -17 14 -55 90 -55 110 0 6 -7 25 -16
41 -16 32 -15 43 16 229 5 30 14 100 21 154 16 148 58 193 115 123z m-982 -29
c13 -22 -14 -54 -38 -45 -16 6 -22 48 -9 61 11 11 35 3 47 -16z m396 7 c16
-19 -4 -126 -30 -165 -9 -14 -22 -41 -29 -60 -12 -35 -69 -127 -104 -167 -11
-12 -25 -19 -33 -16 -18 7 -18 38 2 123 12 52 25 81 54 117 37 44 65 93 89
156 12 30 32 35 51 12z m355 -16 c63 -56 69 -76 51 -181 -9 -51 -16 -124 -16
-165 0 -70 -1 -73 -23 -73 -25 0 -51 47 -77 140 -14 46 -25 272 -16 296 9 23
43 16 81 -17z m-861 -81 c14 -40 -9 -75 -69 -105 -27 -14 -58 -32 -67 -41 -14
-12 -20 -12 -33 -2 -26 21 -17 40 52 111 73 76 100 85 117 37z m1291 -56 c16
-16 60 -41 97 -57 37 -15 76 -37 86 -49 22 -23 42 -85 42 -128 0 -24 -4 -28
-27 -28 -16 1 -39 7 -53 15 -14 8 -36 14 -49 15 -51 0 -161 153 -161 223 0 46
21 49 65 9z m525 -24 c24 -26 25 -37 4 -45 -21 -8 -59 30 -51 51 9 22 22 20
47 -6z m-2083 -40 c24 -28 41 -72 45 -118 4 -52 30 -50 68 4 67 98 167 96 116
-2 -29 -55 -188 -162 -241 -162 -17 0 -46 22 -97 75 -205 211 -203 204 -76
206 46 1 94 5 108 9 42 13 56 11 77 -12z m2293 6 c0 -9 -7 -14 -17 -12 -25 5
-28 28 -4 28 12 0 21 -6 21 -16z m-170 -109 c18 -22 8 -50 -19 -50 -28 0 -47
25 -38 49 8 20 40 21 57 1z m-1078 -60 c8 -17 8 -48 2 -102 -8 -69 -11 -78
-31 -81 -35 -5 -57 38 -50 98 11 93 54 140 79 85z m928 -81 c16 -30 4 -57 -27
-62 -16 -2 -24 8 -41 54 -12 32 -19 61 -16 65 8 13 69 -29 84 -57z m-395 -3
c17 -4 39 -12 50 -18 11 -6 37 -14 59 -17 27 -5 52 -21 87 -56 72 -72 69 -90
-33 -183 -109 -97 -146 -128 -188 -157 -19 -13 -60 -46 -90 -75 -76 -72 -171
-135 -203 -135 -37 0 -84 44 -152 147 -115 172 -128 177 -222 76 -35 -38 -63
-72 -63 -76 0 -5 -28 -38 -62 -73 -68 -71 -85 -76 -146 -45 -20 11 -114 95
-208 188 -94 92 -201 192 -237 221 -44 35 -67 60 -67 74 0 15 4 18 18 12 66
-29 168 -5 275 67 33 21 65 39 73 39 25 0 42 -44 54 -140 14 -118 26 -165 47
-185 14 -15 17 -15 31 -1 13 13 14 22 4 54 -18 58 -15 112 8 155 11 20 20 43
20 51 0 8 9 24 19 37 19 23 21 23 37 7 14 -14 15 -24 7 -65 -6 -26 -17 -63
-24 -80 -12 -29 -11 -35 3 -49 12 -12 26 -14 57 -9 33 5 54 19 101 68 59 59
60 60 80 42 12 -11 35 -45 52 -78 33 -61 109 -137 137 -137 9 0 24 11 33 24
16 23 16 26 -4 74 -23 54 -19 82 10 82 23 0 43 -22 71 -80 15 -31 39 -58 81
-87 33 -24 67 -43 75 -43 18 0 19 27 4 67 -18 47 7 137 60 218 65 100 72 107
96 100 11 -4 34 -10 50 -14z"/>
<path d="M4343 6805 c-95 -81 -87 -193 17 -240 34 -15 40 -15 66 -2 65 34 107
110 95 170 -5 24 -21 42 -61 69 -29 21 -59 38 -65 38 -6 0 -30 -16 -52 -35z"/>
<path d="M4575 5194 c-27 -7 -61 -15 -75 -18 -66 -14 -184 -166 -178 -230 5
-55 37 -46 93 26 23 30 85 58 126 58 32 0 75 -17 102 -39 44 -36 98 87 65 148
-7 13 -29 34 -48 46 -32 20 -39 21 -85 9z"/>
<path d="M1898 4673 c-24 -28 -28 -40 -22 -57 9 -23 94 -3 94 23 0 10 -39 51
-49 51 -4 0 -15 -8 -23 -17z"/>
<path d="M1970 4531 c-6 -16 -21 -39 -32 -51 l-20 -21 -24 22 c-24 22 -54 20
-54 -4 0 -8 7 -20 15 -27 8 -7 20 -30 26 -51 12 -38 28 -53 45 -41 17 13 96
181 89 192 -12 19 -33 10 -45 -19z"/>
<path d="M6678 4475 c-10 -13 -18 -29 -18 -36 0 -6 8 -18 18 -25 43 -33 80 0
61 55 -13 37 -37 40 -61 6z"/>
<path d="M6606 4228 c3 -35 10 -67 15 -72 5 -6 24 2 46 21 46 37 52 76 13 81
-13 2 -33 10 -44 18 -33 23 -37 17 -30 -48z"/>
<path d="M4133 2132 c-46 -39 -113 -133 -113 -158 0 -13 25 -49 63 -89 53 -56
69 -67 104 -72 46 -6 51 -2 136 100 50 61 49 94 -4 163 -22 29 -51 60 -64 68
-37 24 -85 20 -122 -12z"/>
</g>
</svg>
